<svg width="25" height="25" viewBox="0 0 25 25" fill="none" xmlns="http://www.w3.org/2000/svg">
<path d="M1.53553 8.60656C-0.417087 10.5592 -0.417087 13.725 1.53553 15.6776C3.48818 17.6303 6.65398 17.6302 8.6066 15.6776C6.65398 17.6302 6.65395 20.796 8.6066 22.7487C10.5593 24.7013 13.725 24.7013 15.6777 22.7487C17.6303 20.796 17.6303 17.6303 15.6777 15.6776C17.6303 17.6303 20.7961 17.6303 22.7487 15.6776C24.7014 13.725 24.7014 10.5592 22.7487 8.60656C20.7961 6.65391 17.6303 6.65391 15.6777 8.60656C17.6303 6.65391 17.6303 3.48814 15.6777 1.53549C13.725 -0.417132 10.5593 -0.417162 8.6066 1.53549C6.65395 3.48814 6.65398 6.65394 8.6066 8.60656C6.65398 6.65394 3.48818 6.65391 1.53553 8.60656Z" fill="#FF4409"/>
</svg>
