<svg width="52" height="52" viewBox="0 0 52 52" fill="none" xmlns="http://www.w3.org/2000/svg">
<path d="M32.4721 34.8383L41.1799 25.3445L31.9153 25.7687V25.7687C35.2981 25.6137 37.1878 29.6177 34.918 32.1305L32.4721 34.8383Z" fill="#010101"/>
<path d="M41.1799 25.3445L34.8507 19.5393L31.6861 16.6367L34.3505 19.0984C36.8601 21.4169 35.3284 25.6123 31.9153 25.7687V25.7687L41.1799 25.3445Z" fill="#010101"/>
<path d="M14.6937 26.4882L31.9153 25.7687M41.1799 25.3445L34.8507 19.5393L31.6861 16.6367M41.1799 25.3445L32.4721 34.8383M41.1799 25.3445L31.9153 25.7687M28.5215 13.7341L31.6861 16.6367M29.5695 38.0029L32.4721 34.8383M31.6861 16.6367L34.3505 19.0984C36.8601 21.4169 35.3284 25.6123 31.9153 25.7687V25.7687M32.4721 34.8383L34.918 32.1305C37.1878 29.6177 35.2981 25.6137 31.9153 25.7687V25.7687" stroke="#010101" stroke-width="2" stroke-linecap="round" stroke-linejoin="round"/>
</svg>
