<svg width="2280" height="887" viewBox="0 0 2280 887" fill="none" xmlns="http://www.w3.org/2000/svg">
<path fill-rule="evenodd" clip-rule="evenodd" d="M0 400.929L0.285339 390.371L2077.39 390.086L2082.74 400.838L0 400.929Z" fill="black"/>
<path fill-rule="evenodd" clip-rule="evenodd" d="M2077.56 390.76C1953.21 161.092 1729.86 40.0321 1589.5 15.0913C896.211 -108.096 488.973 553.505 358.406 886.569H586.908C817.744 275.174 1155.83 65.2843 1580.16 106.347C1775.95 125.282 1962.61 256.056 2053.55 390.657L2077.56 390.76Z" fill="#9A3E8C"/>
<path fill-rule="evenodd" clip-rule="evenodd" d="M983.432 700.75C975.884 710.62 965.326 715.562 951.76 715.562C945.418 715.562 939.815 714.965 934.925 713.772C930.023 712.553 924.122 710.309 917.235 706.989V619.365C923.252 614.33 929.88 610.073 936.962 606.694C943.697 603.46 951.072 601.78 958.543 601.778C971.267 601.778 980.488 606.642 986.195 616.382C991.902 626.109 994.768 639.805 994.768 657.418C994.768 676.445 990.981 690.88 983.432 700.75ZM1006.84 598.004C996.843 583.997 982.875 576.98 964.95 576.98C955.599 576.98 946.948 578.938 938.959 582.855C931.088 586.714 923.779 591.627 917.235 597.459V581.247H891.01V792.836H917.235V728.156C923.46 731.839 929.543 734.563 935.496 736.326C941.436 738.077 948.284 738.933 956.027 738.933C975.093 738.933 990.825 731.307 1003.25 716.016C1015.66 700.75 1021.86 680.245 1021.86 654.487C1021.86 630.869 1016.84 612.037 1006.84 598.004ZM1170.12 735.808H1143.88V718.675C1135.87 725.665 1128.23 730.983 1120.96 734.627C1113.4 738.326 1105.07 740.197 1096.65 740.088C1090.11 740.136 1083.61 739.007 1077.48 736.754C1071.46 734.542 1066.06 730.938 1061.7 726.236C1057.27 721.45 1053.82 715.406 1051.37 708.13C1048.93 700.841 1047.7 691.996 1047.7 681.555V581.247H1073.92V669.221C1073.92 677.418 1074.23 684.214 1074.83 689.609C1075.44 695.018 1076.83 699.726 1079.01 703.785C1081.07 707.754 1083.95 710.659 1087.62 712.514C1091.29 714.356 1096.57 715.277 1103.44 715.277C1109.85 715.277 1116.68 713.474 1123.93 709.907C1131.12 706.379 1137.82 701.927 1143.86 696.665V581.247H1170.09V735.808H1170.12ZM1290.89 609.482H1289.48C1287.51 608.976 1285.43 608.665 1283.25 608.535C1281.08 608.406 1278.44 608.341 1275.33 608.341C1268.24 608.341 1261.19 609.871 1254.2 612.906C1247.21 615.941 1240.6 620.429 1234.37 626.421V735.821H1208.16V581.26H1234.37V604.229C1243.99 595.838 1252.39 589.911 1259.52 586.461C1266.64 582.998 1273.58 581.273 1280.27 581.273C1282.93 581.273 1284.93 581.338 1286.3 581.493C1287.69 581.636 1289.22 581.844 1290.91 582.116L1290.89 609.482ZM1403.5 700.75C1395.95 710.62 1385.39 715.562 1371.81 715.562C1365.48 715.562 1359.88 714.965 1354.96 713.772C1350.05 712.553 1344.17 710.309 1337.29 706.989V619.365C1343.31 614.333 1349.93 610.076 1357.01 606.694C1363.75 603.461 1371.12 601.781 1378.6 601.778C1391.31 601.778 1400.53 606.642 1406.23 616.382C1411.95 626.109 1414.82 639.805 1414.82 657.418C1414.82 676.445 1411.02 690.88 1403.5 700.75ZM1426.89 598.004C1416.89 583.997 1402.93 576.98 1385 576.98C1375.65 576.98 1366.99 578.938 1359.01 582.855C1351.14 586.713 1343.82 591.627 1337.27 597.459V581.247H1311.06V792.836H1337.27V728.156C1343.5 731.839 1349.58 734.563 1355.53 736.326C1361.49 738.077 1368.32 738.933 1376.05 738.933C1395.13 738.933 1410.86 731.307 1423.28 716.016C1435.69 700.75 1441.9 680.245 1441.9 654.487C1441.9 630.869 1436.91 612.037 1426.89 598.004ZM1469.51 520.795H1495.73V735.808H1469.51V520.795ZM1549.63 641.128C1550.19 634.592 1551.48 628.872 1553.53 623.956C1555.53 619.041 1558.55 614.54 1562.49 610.507C1566.3 606.663 1570.81 603.593 1575.79 601.467C1580.68 599.392 1586.63 598.354 1593.62 598.354C1600.69 598.354 1606.62 599.379 1611.38 601.402C1616.14 603.412 1620.07 606.369 1623.18 610.221C1626.02 613.736 1628.15 618.016 1629.61 623.062C1631.08 628.133 1631.89 634.138 1632.09 641.141L1549.63 641.128ZM1617.21 738.129C1621.34 737.39 1625.98 736.326 1631.06 734.939C1634.73 733.94 1638.85 732.539 1643.37 730.736C1647.89 728.934 1651.71 727.442 1654.85 726.236V697.884H1653.28C1650.68 699.907 1647.96 701.766 1645.12 703.448C1641.88 705.407 1637.87 707.456 1633.17 709.557C1623.07 714.002 1612.17 716.337 1601.14 716.418C1585.01 716.418 1572.36 711.671 1563.27 702.203C1554.15 692.735 1549.61 679.026 1549.61 661.089H1657.73V647.004C1657.73 634.669 1656.24 624.229 1653.22 615.708C1650.18 607.2 1645.9 599.975 1640.35 594.087C1634.77 588.199 1628.26 583.88 1620.82 581.117C1613.37 578.355 1604.84 576.98 1595.23 576.98C1573.73 576.98 1556.32 584.399 1543.03 599.301C1529.73 614.177 1523.09 634.19 1523.09 659.351C1523.09 684.888 1529.95 704.563 1543.69 718.441C1557.42 732.319 1576.67 739.245 1601.47 739.245C1607.82 739.232 1613.06 738.856 1617.21 738.129ZM1841.81 710.815C1834.88 714.411 1827.16 716.233 1819.35 716.12C1809.75 716.12 1802.4 713.876 1797.36 709.375C1792.33 704.875 1789.81 698.221 1789.81 689.389C1789.81 681.581 1792.1 675.498 1796.68 671.153C1801.24 666.783 1807.01 663.553 1813.98 661.426C1819.83 659.688 1827.5 658.352 1837.02 657.379C1846.52 656.42 1854.4 655.654 1860.63 655.097V697.78C1854.89 702.848 1848.57 707.223 1841.81 710.815ZM1860.63 735.808H1886.87V630.117C1886.87 620.429 1885.43 612.232 1882.59 605.5C1879.91 598.957 1875.51 593.264 1869.85 589.029C1863.95 584.677 1857.2 581.615 1850.05 580.041C1842.68 578.381 1833.63 577.564 1822.97 577.564C1814.07 577.564 1805.16 578.381 1796.12 580.028C1787.13 581.688 1780.16 583.205 1775.25 584.593V610.909H1776.79C1784.76 607.578 1793.01 604.956 1801.44 603.075C1809.65 601.272 1816.79 600.377 1822.81 600.377C1827.91 600.377 1832.89 600.715 1837.75 601.415C1842.61 602.102 1846.69 603.503 1849.98 605.617C1853.41 607.653 1856.01 610.546 1857.85 614.294C1859.71 618.029 1860.62 622.932 1860.62 629.041V634.021C1847.74 634.691 1834.9 635.825 1822.11 637.419C1810.23 638.949 1799.89 641.686 1791.12 645.668C1781.22 650.103 1774 656.07 1769.46 663.605C1764.93 671.127 1762.68 680.245 1762.68 690.945C1762.68 697.858 1763.93 704.46 1766.43 710.672C1768.91 716.924 1772.25 722.163 1776.42 726.405C1780.85 730.749 1785.94 734.122 1791.69 736.521C1797.44 738.92 1803.55 740.114 1809.96 740.114C1817.79 740.114 1823.86 739.465 1828.19 738.194C1832.84 736.776 1837.35 734.917 1841.64 732.643C1845.04 730.996 1848.5 728.752 1852.06 725.938C1855.57 723.136 1858.44 720.944 1860.62 719.375L1860.63 735.808ZM2006.46 609.482H2005.05C2003.08 608.976 2001 608.665 1998.82 608.535C1996.64 608.406 1994.01 608.341 1990.9 608.341C1983.8 608.341 1976.76 609.871 1969.77 612.906C1962.78 615.941 1956.16 620.429 1949.94 626.421V735.821H1923.7V581.26H1949.94V604.229C1959.56 595.838 1967.95 589.911 1975.09 586.461C1982.21 582.998 1989.15 581.273 1995.84 581.273C1998.5 581.273 2000.5 581.338 2001.87 581.493C2003.23 581.636 2004.79 581.844 2006.47 582.116L2006.46 609.482ZM2086.99 739.232C2076.23 739.232 2066.34 737.61 2057.43 734.329C2048.72 731.197 2040.85 726.113 2034.41 719.466C2027.98 712.838 2023.01 704.486 2019.47 694.395C2015.93 684.305 2014.15 672.437 2014.15 658.793C2014.15 645.266 2016.01 633.567 2019.68 623.697C2023.37 613.84 2028.29 605.565 2034.42 598.834C2040.78 591.947 2048.64 586.629 2057.39 583.296C2066.82 579.597 2076.87 577.739 2087 577.823C2095.49 577.823 2103.75 579.016 2111.72 581.416C2119.73 583.815 2126.82 586.565 2133.06 589.703V618.885H2131.52C2129.22 616.987 2126.83 615.216 2124.34 613.581C2120.89 611.314 2117.31 609.261 2113.6 607.433C2109.5 605.426 2105.21 603.832 2100.79 602.673C2096.15 601.366 2091.35 600.681 2086.52 600.637C2072.89 600.637 2061.95 605.708 2053.67 615.824C2045.38 625.954 2041.26 640.298 2041.26 658.793C2041.26 676.951 2045.27 691.088 2053.27 701.217C2061.25 711.347 2072.35 716.405 2086.52 716.405C2094.94 716.422 2103.26 714.663 2110.95 711.243C2118.47 707.918 2125.42 703.408 2131.52 697.884H2133.06V727.066C2130.53 728.272 2127.29 729.712 2123.36 731.424C2119.43 733.136 2115.86 734.394 2112.64 735.224C2108.21 736.508 2104.24 737.507 2100.69 738.194C2097.12 738.882 2092.57 739.232 2086.99 739.232ZM2279.41 735.808H2253.2V647.834C2253.2 640.752 2252.85 634.125 2252.13 628.003C2251.42 621.881 2250.14 616.953 2248.23 613.269C2246.22 609.524 2243.08 606.5 2239.27 604.618C2235.47 602.725 2230.25 601.778 2223.67 601.778C2217.16 601.778 2210.44 603.503 2203.52 606.953C2196.26 610.636 2189.45 615.163 2183.24 620.442V735.808H2157.03V520.795H2183.24V598.406C2191.07 591.506 2198.79 586.201 2206.39 582.492C2213.87 578.845 2222.09 576.955 2230.41 576.967C2245.77 576.967 2257.76 581.96 2266.43 591.973C2275.09 601.973 2279.42 616.486 2279.42 635.474V735.808H2279.41Z" fill="black"/>
</svg>
