<svg width="2427" height="335" viewBox="0 0 2427 335" fill="none" xmlns="http://www.w3.org/2000/svg">
<path fill-rule="evenodd" clip-rule="evenodd" d="M1490.71 154.811H1508.88L1453.45 290.941H1435.31L1490.71 154.811ZM1546.41 174.473H1528.28L1536.28 154.811H1554.42L1546.41 174.473ZM1519.49 196.028H1537.65L1499 290.941H1480.86L1519.49 196.028ZM1604.56 206.236C1625.93 206.236 1635.04 219.659 1626.7 240.074C1617.71 262.187 1599.08 275.442 1576.59 275.442C1554.86 275.442 1546.65 262.576 1555.44 241.021C1564.45 218.894 1582.44 206.236 1604.56 206.236ZM1613.57 273.743L1608.73 285.65C1600.5 305.869 1585.3 315.311 1560.73 315.311C1539.73 315.311 1531.87 309.086 1536.89 294.897H1518.2C1509.8 316.453 1521.4 328.359 1552.57 328.359C1575.83 328.359 1594.17 323.262 1607.83 312.471C1618.11 304.365 1622.84 294.158 1628.63 279.969L1649.86 227.791C1650.5 226.274 1651.18 224.575 1651.78 223.083C1655.1 214.951 1658.9 206.067 1664.49 196.042H1646.36L1639.5 209.66C1634.74 199.076 1624.02 193.772 1606.81 193.772C1575.8 193.772 1548.45 212.682 1536.84 241.228C1525.14 269.956 1538.17 288.114 1567.65 288.114C1584.09 288.101 1599.19 283.574 1613.57 273.743ZM1702.26 154.811H1720.39L1696.9 212.461C1710.68 199.997 1726.19 193.94 1743.97 193.94C1773.07 193.94 1782.5 207.922 1771.43 235.158L1748.7 290.941H1730.57L1752.28 237.623C1760.74 216.819 1755.07 206.612 1735.41 206.612C1713.85 206.612 1693.47 220.969 1684.22 243.666L1664.97 290.941H1646.84L1702.26 154.811ZM1836.13 196.028H1863.54L1858.38 208.687H1830.97L1812.96 252.94C1805.43 271.461 1801.96 279.969 1814.42 279.969C1819.71 279.841 1824.96 279.207 1830.13 278.075L1824.58 291.68C1817.96 292.64 1811.68 293.198 1806.21 293.198C1785.59 293.198 1780.93 286.583 1789.23 266.169L1812.62 208.687H1788.81L1793.97 196.028H1817.78L1824.72 179.012L1846.35 170.88L1836.13 196.028ZM1896.01 154.811H1914.15L1890.68 212.461C1904.44 199.997 1919.94 193.94 1937.72 193.94C1966.83 193.94 1976.26 207.922 1965.18 235.158L1942.46 290.941H1924.33L1946.04 237.623C1954.49 216.819 1948.83 206.612 1929.16 206.612C1907.61 206.612 1887.22 220.969 1877.97 243.666L1858.73 290.941H1840.59L1896.01 154.811ZM1992.99 243.472C2001.78 221.942 2023.13 206.612 2044.69 206.612C2066.03 206.612 2075.11 221.942 2066.35 243.472C2057.55 265.028 2036.1 280.15 2014.74 280.15C1993.2 280.15 1984.22 265.028 1992.99 243.472ZM2049.91 193.759C2014.96 193.759 1987.17 212.28 1974.48 243.472C1961.78 274.677 1974.46 293.198 2009.43 293.198C2044.41 293.198 2072.18 274.677 2084.87 243.472C2097.56 212.28 2084.89 193.759 2049.91 193.759ZM2192.19 260.32C2189.51 266.934 2185.73 277.141 2181.24 290.941H2162.92L2168.47 274.47C2153.42 287.336 2138.89 292.809 2121.69 292.809C2090.88 292.809 2083.31 278.451 2095.54 248.374L2116.88 196.016H2135.01L2113.37 249.127C2104.92 269.93 2110.51 280.332 2130.17 280.332C2150.42 280.332 2170.88 266.727 2178.43 248.18L2199.66 196.003H2218.38L2192.19 260.32ZM2224.32 263.147C2219.96 274.288 2227.51 280.345 2246.43 280.345C2267.03 280.345 2279.49 275.222 2283.56 265.222C2287.44 255.767 2278.91 254.431 2262.54 251.422C2232.27 245.923 2218 241.967 2226.24 221.735C2233.15 204.718 2253.32 193.759 2282.63 193.759C2312.11 193.759 2323.26 203.006 2316.68 221.553H2298.52C2301.41 210.762 2294.95 206.223 2278.3 206.223C2259.96 206.223 2248.61 211.346 2244.84 220.58C2241.09 229.854 2250.87 231.371 2270.5 235.145C2285.02 237.986 2294.92 239.685 2299.02 243.096C2305.16 248.011 2306.25 254.626 2302.54 263.692C2294.69 282.965 2273.73 293.561 2241.2 293.561C2209.26 293.561 2197.28 283.561 2205.41 263.134L2224.32 263.147ZM2340.31 235.924C2348.71 217.584 2366.09 206.054 2384.99 206.054C2405.4 206.054 2412.92 216.819 2405.69 234.601L2405.15 235.924H2340.31ZM2411.52 261.63H2392.04C2385.38 273.354 2372.26 280.527 2355.79 280.527C2334.05 280.527 2326.61 268.62 2334.87 247.441H2418.99C2419.68 245.742 2420.49 244.224 2421.17 242.525C2433.96 211.138 2423.46 193.759 2392.07 193.759C2358.81 193.759 2330.11 213.603 2317.49 244.6C2305.33 274.47 2316.88 293.003 2349.2 293.003C2378.89 293.016 2399.28 282.809 2411.52 261.63ZM382.767 90.1304C452.492 43.971 587.442 63.9444 626.443 127.885C578.895 98.2105 477.199 77.6924 382.767 90.1304Z" fill="#2360A5"/>
<path fill-rule="evenodd" clip-rule="evenodd" d="M566.847 230.554L565.718 232.966C554.045 257.712 529.131 272.615 501.738 272.615C481.778 272.615 474.619 265.702 480.663 252.926C488.95 235.365 506.991 230.554 538.858 230.554H566.847ZM539.195 292.303H583.266C586.042 283.263 590.101 273.406 595.25 262.485L620.503 208.985C637.208 173.577 620.749 155.472 571.01 155.472C523.061 155.472 489.223 170.387 475.332 195.406H517.626C525.317 182.903 538.508 177.04 558.754 177.04C581.386 177.04 587.832 186.093 578.662 205.535L577.534 207.934H554.305C488.782 207.934 451.597 218.57 435.645 252.395C423.323 278.464 438.822 295.506 477.822 295.506C503.139 295.506 526.614 288.062 546.666 273.951L539.195 292.303ZM253.471 157.586H289.203L284.741 242.966L348.76 157.586L378.954 171.087L289.203 290.604H253.471V157.586Z" fill="black"/>
<path fill-rule="evenodd" clip-rule="evenodd" d="M348.76 157.586H384.504L381.521 242.966L449.029 156.587H488.716L384.491 290.604H348.76V157.586ZM798.409 212.785C809.783 193.694 830.288 182.293 853.413 182.293C878.912 182.293 887.978 192.617 879.353 212.785H798.409ZM787.397 236.092H912.815L915.318 230.8C938.573 181.502 922.296 156.315 867.148 156.315C811.69 156.315 765.011 183.616 743.987 228.167C723.975 270.578 744.882 295.999 802.105 295.999C848.653 295.999 885.799 278.243 903.334 249.892H860.054C851.351 263.925 834.841 271.875 815.256 271.875C786.502 271.875 776.373 259.411 786.762 237.428L787.397 236.092ZM952.775 252.032C945.395 267.66 954.759 272.952 982.618 272.952C1006.94 272.952 1022.14 267.128 1027.16 256.506C1032.41 245.391 1017.7 245.106 988.104 240.592C946.173 233.978 930.519 221.241 941.647 197.662C954.435 170.633 987.274 156.302 1038.87 156.302C1086.31 156.302 1105.18 170.348 1093.55 195.004L1092.54 197.131H1052.51C1058.18 183.888 1050 178.584 1027.45 178.584C1004.33 178.584 989.959 183.888 985.329 193.694C980.712 203.486 994.68 204.017 1020.89 208.816C1065.48 216.767 1085.61 223.135 1071.59 252.797C1057.96 281.706 1023.8 296.297 969.532 296.297C916.446 296.297 896.849 282.498 910.247 254.146C910.766 253.082 911.894 251.059 912.387 250.021H953.527C953.436 250.255 952.904 251.746 952.775 252.032ZM1143.65 212.785C1155.03 193.694 1175.53 182.293 1198.66 182.293C1224.14 182.293 1233.22 192.617 1224.59 212.785H1143.65ZM1132.65 236.092H1258.07C1258.95 234.263 1259.82 232.395 1260.57 230.8C1283.85 181.502 1267.54 156.315 1212.42 156.315C1156.97 156.315 1110.27 183.616 1089.26 228.167C1069.24 270.578 1090.14 295.999 1147.37 295.999C1193.92 295.999 1231.07 278.243 1248.6 249.892H1205.32C1196.61 263.925 1180.12 271.875 1160.54 271.875C1131.78 271.875 1121.63 259.411 1132.03 237.428L1132.65 236.092Z" fill="black"/>
<path fill-rule="evenodd" clip-rule="evenodd" d="M1370.87 159.506H1414.46L1402.07 185.756H1358.2L1330.66 244.055C1322.66 261.033 1322.71 266.597 1340.79 266.597C1347.02 266.597 1354.98 266.065 1364.84 265.248L1351.47 293.626C1338.22 294.689 1326.56 295.481 1316.78 295.481C1272 295.481 1268.94 282.485 1285.96 246.468L1314.61 185.756H1273.67L1286.08 159.506H1326.99L1332.74 149.259L1381.63 138.663L1370.87 159.506ZM640.087 158.416H675.663L672.706 243.42L739.902 157.417H779.434L675.663 290.863H640.087V158.416ZM1423.62 158.611H1420.65L1426.04 147.625H1420.88L1421.97 145.42H1435.29L1434.2 147.625H1429.04L1423.62 158.611ZM1437.44 145.42H1441.9L1441.59 155.796L1451.42 145.42H1455.7L1449.24 158.611H1446.4L1451.55 148.105L1441.64 158.611H1438.43L1438.76 148.105L1433.62 158.611H1430.96L1437.44 145.42Z" fill="black"/>
<path fill-rule="evenodd" clip-rule="evenodd" d="M162.371 334.312C-112.134 328.567 -24.5099 50.5209 319.306 4.36149C383.285 -4.2245 444.127 0.159312 493.697 14.9319C493.697 14.9319 495.539 15.308 495.318 15.3339C268.464 -39.9821 -140.797 199.064 162.371 334.312Z" fill="#2360A5"/>
<path fill-rule="evenodd" clip-rule="evenodd" d="M168.389 256.182C69.4301 215.418 126.523 68.8728 393.467 33.0244C443.141 26.3579 529.286 33.0243 573.695 51.4933L574.94 51.8175C400.743 3.93316 88.6123 108.353 168.389 256.182Z" fill="#2360A5"/>
</svg>
