<svg width="2427" height="465" viewBox="0 0 2427 465" fill="none" xmlns="http://www.w3.org/2000/svg">
<path fill-rule="evenodd" clip-rule="evenodd" d="M163.808 115.122H235.142C231.173 123.099 225.894 137.742 220.603 155.043H149.269L117.558 252.2V256.181C117.558 258.84 118.881 261.499 121.527 262.848H184.936C184.936 262.848 179.657 277.491 170.41 306.751C165.118 308.099 158.516 309.435 151.915 309.435H130.787C122.863 309.435 110.969 308.086 92.4744 308.086C59.4534 305.428 39.6356 296.102 31.6981 276.142V269.501C31.6981 258.84 34.3439 245.533 39.6226 229.567C40.9455 225.573 44.9013 212.266 54.1617 190.969C55.4847 185.639 59.4404 173.668 66.055 155.043H0L10.5704 115.122H76.6254C77.9483 113.786 80.5941 108.469 83.227 99.1565C84.5499 96.4977 87.1828 88.5084 89.8286 79.1961C104.355 75.2014 133.42 67.212 178.334 56.5638C174.378 68.5479 169.1 88.4954 163.808 115.122ZM315.723 262.835H360.637C361.96 262.835 361.96 261.486 363.27 261.486C364.606 261.486 365.916 262.835 367.239 262.835C369.885 262.835 372.531 262.835 372.531 261.486C384.359 239.385 394.09 216.223 401.596 192.305C402.919 188.311 410.843 164.356 424.046 120.44L426.692 115.122H508.596L414.812 383.947C396.317 383.947 368.588 383.947 332.908 382.598C334.231 378.59 342.155 354.661 356.681 312.068L352.713 309.409H236.465L227.217 304.066C224.571 302.743 221.939 300.084 220.616 298.748H219.293C217.97 294.767 216.647 289.449 216.647 282.795C216.647 276.142 217.97 269.501 220.616 262.835C232.509 229.567 249.681 180.321 273.455 115.122H355.359L309.121 253.51C309.121 256.181 311.767 258.84 315.723 262.835ZM513.875 308.086C509.906 306.738 504.628 306.738 500.659 305.428C496.69 304.079 494.057 301.42 491.411 298.761C488.766 294.78 486.133 290.785 486.133 285.467C487.456 282.808 488.779 273.483 494.057 257.53C498.013 250.864 504.615 229.58 516.508 194.977C524.432 171.022 532.357 152.384 540.282 137.755C550.852 124.448 566.701 116.458 590.474 113.799L751.637 115.135C759.561 116.471 764.853 120.453 770.132 124.448H771.455C774.1 129.765 775.423 133.76 775.423 140.413C775.423 147.067 772.777 155.056 767.499 165.691L758.251 190.982H684.272C684.272 190.982 685.595 185.652 689.551 177.675C690.873 172.345 692.196 168.35 692.196 164.369C692.196 161.71 690.873 159.051 689.551 156.392C688.228 155.056 676.334 155.056 656.529 155.056H618.217C608.969 155.056 602.368 159.051 599.722 167.027L568.024 254.872C568.024 258.853 570.67 261.512 574.625 262.848H652.561C656.529 260.189 661.808 252.213 665.777 237.57H739.756C737.423 250.209 732.953 262.358 726.54 273.496C715.97 290.798 698.798 302.782 673.701 308.099H525.768L513.875 308.086ZM945.833 155.043C947.156 155.043 948.466 157.702 948.466 161.697V164.355C948.466 169.686 937.909 198.959 916.768 254.859C915.445 258.84 912.799 261.499 908.843 261.499C894.317 261.499 874.499 261.499 848.08 260.176C845.434 260.176 842.788 258.827 842.788 254.859V245.533C857.327 206.935 866.562 178.998 873.176 159.038C875.822 156.379 878.455 155.043 882.424 155.043H945.833ZM998.672 115.122H850.726C821.661 117.781 804.489 128.416 797.887 145.718L756.941 260.176C755.618 265.494 755.619 269.501 755.619 276.129C755.619 282.795 755.619 286.79 758.264 290.772C766.189 302.756 772.803 308.073 780.715 308.073H949.802C965.651 308.073 980.19 297.438 992.07 276.129C999.995 258.827 1007.92 236.208 1015.84 206.935L1033.02 151.036C1034.34 147.041 1034.34 144.382 1034.34 143.046C1034.33 124.435 1022.45 115.122 998.672 115.122Z" fill="#0D6FAB"/>
<path d="M1179.65 2L1039.62 462.453" stroke="#0D6FAB" stroke-width="11.8284" stroke-miterlimit="2.613"/>
<path fill-rule="evenodd" clip-rule="evenodd" d="M1183.61 309.423L1243.05 113.8H1365.9L1359.3 136.419H1262.85L1244.36 197.623H1335.54L1328.92 221.579H1237.78L1217.95 286.803H1315.69L1309.12 309.423H1183.61ZM1340.8 309.423L1401.56 113.8H1426.67L1367.22 309.423H1340.8ZM1438.55 228.232C1446.48 205.613 1463.66 188.311 1484.78 188.311C1509.89 188.311 1515.18 205.613 1507.24 228.232H1438.55ZM1529.69 246.883L1533.67 233.563C1544.23 196.3 1533.67 169.686 1492.72 169.686C1450.43 169.686 1420.06 202.954 1408.18 242.888C1394.95 282.809 1402.89 313.417 1446.48 313.417C1479.51 313.417 1507.26 298.775 1521.77 266.83H1494.03C1484.78 286.816 1472.9 294.793 1453.09 294.793C1426.67 294.793 1424.04 270.825 1433.29 246.896L1529.69 246.883ZM1639.35 217.597C1643.31 200.295 1638 188.324 1620.86 188.324C1595.75 188.324 1579.9 209.62 1569.33 241.552C1560.08 273.496 1562.71 294.793 1587.82 294.793C1605 294.793 1618.2 284.132 1626.12 264.171H1651.23C1640.68 294.793 1611.58 313.417 1581.22 313.417C1537.63 313.417 1529.69 282.822 1542.92 242.888C1554.8 202.954 1585.18 169.686 1627.46 169.686C1656.54 169.686 1672.37 186.988 1664.45 217.597H1639.35ZM1701.43 173.668L1710.67 144.395L1738.44 136.419L1727.86 173.681L1758.26 172.345L1752.97 190.983H1721.28L1694.86 280.15C1692.2 289.475 1698.82 293.444 1708.07 293.444C1712.05 293.444 1717.31 293.444 1721.3 292.121L1716 312.082C1709.39 312.082 1702.8 313.404 1697.51 313.404C1690.89 313.404 1686.95 313.405 1680.34 312.082C1676.38 312.082 1671.09 309.423 1668.46 304.079C1665.82 297.439 1664.47 296.103 1669.78 277.478L1696.2 190.97H1672.41L1679.03 172.332L1701.43 173.668ZM1763.51 309.423H1737.12L1779.37 173.668H1804.48L1796.56 198.959C1807.12 180.322 1826.93 171.009 1845.45 171.009H1854.7L1846.78 196.3C1844.12 194.965 1840.16 194.965 1836.22 194.965C1803.19 196.3 1792.63 213.589 1783.38 241.526L1763.51 309.423ZM1867.88 241.539C1877.13 212.266 1894.3 188.311 1924.67 188.311C1955.08 188.311 1957.71 212.266 1948.46 241.539C1940.54 270.825 1923.35 294.78 1891.67 294.78C1861.27 294.78 1858.63 270.825 1867.88 241.539ZM1929.97 169.686C1886.37 169.686 1853.37 198.959 1841.46 241.539C1828.26 284.119 1841.46 313.404 1886.37 313.404C1931.29 313.404 1963 284.119 1976.2 241.539C1989.42 198.959 1974.88 169.686 1929.97 169.686ZM2031.66 193.642C2044.89 176.34 2066.01 169.686 2080.56 169.686C2089.81 169.686 2130.74 171.022 2117.55 214.925L2088.5 309.423H2063.39L2088.5 224.237C2096.42 201.618 2089.82 188.311 2068.69 188.311C2068.69 188.311 2054.15 188.311 2040.92 198.959C2035.66 202.954 2026.41 208.272 2018.48 234.898L1996.02 309.423H1970.94L2011.87 173.668H2036.98L2031.66 193.642ZM2112.24 309.423L2153.2 173.668H2179.62L2137.34 309.423H2112.24ZM2169.06 113.8H2199.44L2191.51 141.737H2161.14L2169.06 113.8ZM2277.39 217.597C2281.34 200.295 2277.39 188.324 2258.89 188.324C2233.78 188.324 2217.93 209.62 2208.69 241.552C2199.44 273.496 2202.1 294.793 2225.86 294.793C2243.03 294.793 2257.57 284.132 2264.16 264.171H2290.58C2278.7 294.793 2250.95 313.417 2220.59 313.417C2177 313.417 2169.06 282.822 2180.94 242.888C2192.82 202.954 2223.23 169.686 2266.82 169.686C2294.56 169.686 2311.73 186.988 2303.81 217.597H2277.39ZM2383.06 169.686C2409.48 169.686 2434.57 180.335 2424 210.943H2396.25C2402.87 193.655 2390.96 188.324 2376.45 188.324C2363.22 188.324 2350.03 194.978 2344.74 209.62C2340.78 224.25 2363.23 225.586 2372.48 229.581C2392.31 236.234 2418.73 238.893 2409.5 269.515C2398.91 304.092 2363.25 313.417 2335.5 313.417C2307.76 313.417 2287.96 300.123 2297.2 269.515H2323.62C2319.67 285.468 2327.61 294.793 2343.43 294.793C2359.29 294.793 2376.46 289.475 2381.73 270.825C2390.98 240.229 2301.17 264.158 2318.32 210.943C2326.24 181.658 2359.28 169.686 2383.06 169.686Z" fill="#0D6FAB"/>
</svg>
