<svg width="2427" height="821" viewBox="0 0 2427 821" fill="none" xmlns="http://www.w3.org/2000/svg">
<path fill-rule="evenodd" clip-rule="evenodd" d="M26.7566 791.557H43.6303L63.4092 714.218L82.6044 791.557H99.4651L126.222 703.155H112.837L91.9038 779.352H91.3201L72.7085 703.155H54.6805L35.4853 779.352L13.9684 703.155H0L26.7566 791.557ZM220.447 777.018C217.529 779.353 208.23 783.425 200.668 783.425C189.034 783.425 179.151 774.683 179.151 761.895H225.09C225.09 741.559 218.113 725.852 196.596 725.852C178.568 725.852 166.35 739.224 166.35 758.432C166.35 779.352 176.83 793.308 200.085 793.308C210.551 793.308 215.791 790.973 220.447 789.235V777.018ZM179.138 753.18C180.293 745.047 184.962 735.139 196.583 735.139C207.049 735.139 212.873 743.297 212.873 753.18H179.138ZM351.883 791.557H363.517V758.977C363.517 747.356 368.743 735.139 380.961 735.139C390.273 735.139 392.595 745.047 392.595 753.18V791.557H404.216V758.977C404.216 747.356 408.872 735.139 421.089 735.139C430.972 735.139 432.723 745.047 432.723 753.18V791.557H444.941V750.261C444.941 736.306 438.547 725.839 422.257 725.839C416.433 725.839 406.55 728.757 402.491 738.044C398.989 729.302 391.428 725.839 383.866 725.839C374.567 725.839 367.589 728.758 363.517 736.306H362.933V727.007H351.883V791.557ZM506.015 741.546C511.37 737.465 517.896 735.219 524.627 735.139C536.832 735.139 540.904 740.962 540.904 752.012H528.103C515.898 752.012 497.857 756.668 497.857 772.958C497.857 787.498 507.74 793.295 521.696 793.295C532.746 793.295 539.153 787.498 542.045 783.412V791.544H553.109C553.109 789.793 552.525 786.33 552.525 779.339V752.596C552.525 734.555 545.547 725.852 526.936 725.852C518.791 725.852 511.242 728.187 505.419 731.65L506.015 741.546ZM540.904 766.551C540.904 776.434 534.51 783.425 522.876 783.425C517.649 783.425 510.659 779.923 510.659 772.958C510.659 761.882 526.949 760.728 533.343 760.728H540.904V766.551ZM610.694 791.557H622.328V758.419L651.406 791.557H668.864L634.546 755.514L664.791 727.007H648.501L622.328 753.18V696.761H610.694V791.557ZM768.316 777.018C765.411 779.353 756.695 783.425 748.55 783.425C745.721 783.432 742.919 782.88 740.305 781.8C737.69 780.72 735.315 779.134 733.315 777.134C731.316 775.133 729.731 772.757 728.653 770.141C727.575 767.526 727.025 764.724 727.033 761.895H773.556C773.556 741.559 766.565 725.852 745.048 725.852C726.437 725.852 714.803 739.224 714.803 758.432C714.803 779.352 725.269 793.308 747.953 793.308C759.004 793.308 763.647 790.973 768.303 789.235V777.018H768.316ZM727.02 753.18C728.174 745.047 732.831 735.139 744.465 735.139C754.931 735.139 760.742 743.297 760.742 753.18H727.02ZM894.525 818.884C896.846 819.468 898.584 820.052 902.657 820.052C918.363 820.052 923.006 805.513 927.662 793.308L951.514 727.02H939.296L921.268 780.52L903.824 727.02H891.023L912.54 787.511C913.707 789.819 914.874 792.724 914.874 794.475C914.874 795.642 911.385 810.182 900.919 810.182C898.584 810.182 896.846 809.598 895.095 809.014L894.525 818.884ZM996.882 759.561C996.882 778.185 1010.25 793.308 1030.03 793.308C1049.22 793.308 1062.6 778.185 1062.6 759.561C1062.6 739.808 1049.8 725.839 1030.03 725.839C1010.27 725.852 996.882 739.808 996.882 759.561ZM1009.68 759.561C1009.68 747.356 1017.24 735.139 1030.03 735.139C1042.82 735.139 1049.8 747.343 1049.8 759.561C1049.8 771.208 1043.99 783.425 1030.03 783.425C1016.08 783.425 1009.68 771.221 1009.68 759.561ZM1173.7 727.007H1161.48V757.252C1161.48 772.958 1155.67 783.425 1142.3 783.425C1131.83 782.841 1128.33 775.851 1128.33 760.728V727.007H1116.71V765.384C1116.71 782.841 1123.69 793.295 1140.55 793.295C1149.85 793.295 1157.99 788.639 1162.08 781.674V791.557H1173.7V727.007ZM1231.84 791.557H1243.46V762.479C1243.46 746.189 1250.45 735.735 1260.92 735.735C1263.26 735.735 1265.58 736.319 1267.91 736.902V726.436C1264.99 725.852 1263.26 725.852 1259.75 725.852C1252.79 725.852 1246.38 730.482 1242.91 736.902V727.02H1231.83L1231.84 791.557ZM1441.24 777.018C1438.32 779.353 1429.03 783.425 1421.46 783.425C1409.84 783.425 1399.96 774.683 1399.96 761.895H1445.91C1445.91 741.559 1438.92 725.852 1417.39 725.852C1399.37 725.852 1387.17 739.224 1387.17 758.432C1387.17 779.352 1397.63 793.308 1420.89 793.308C1431.36 793.308 1436.6 790.973 1441.25 789.235L1441.24 777.018ZM1399.94 753.18C1401.11 745.047 1405.74 735.139 1417.37 735.139C1427.87 735.139 1433.66 743.297 1433.66 753.18H1399.94ZM1462.74 762.479H1495.32V752.596H1462.74V762.479ZM1564.53 728.174C1561.61 727.006 1555.23 725.839 1550.57 725.839C1530.82 725.839 1517.44 739.795 1517.44 759.561C1517.44 778.185 1530.81 793.308 1550.57 793.308C1554.65 793.308 1560.48 792.724 1565.11 790.39L1564.53 779.923C1560.48 782.258 1555.81 783.425 1551.74 783.425C1536.04 783.425 1530.24 771.221 1530.24 759.561C1530.24 747.356 1537.79 735.139 1550.57 735.139C1554.65 735.139 1559.32 736.306 1563.95 738.057L1564.53 728.174ZM1620.36 741.546C1625.02 737.473 1632.6 735.139 1638.99 735.139C1651.19 735.139 1655.28 740.962 1655.28 752.012H1642.49C1630.29 752.012 1612.25 756.668 1612.25 772.958C1612.25 787.498 1622.13 793.295 1636.08 793.295C1647.16 793.295 1653.54 787.498 1655.86 783.412H1656.45V791.544H1667.5C1667.5 789.793 1666.91 786.33 1666.91 779.339V752.596C1666.91 734.555 1659.36 725.852 1641.32 725.852C1632.61 725.852 1625.62 728.187 1619.79 731.65L1620.36 741.546ZM1655.27 766.551C1655.27 776.434 1648.89 783.425 1637.23 783.425C1631.43 783.425 1625.02 779.923 1625.02 772.958C1625.02 761.882 1641.31 760.728 1647.72 760.728H1655.27V766.551ZM1719.26 789.806C1725.06 792.724 1730.88 793.308 1737.27 793.308C1748.92 793.308 1759.97 786.927 1759.97 772.971C1759.97 752.609 1731.48 756.098 1731.48 743.309C1731.48 737.486 1737.27 735.152 1743.1 735.152C1746.02 735.152 1752.98 736.903 1755.89 738.653L1756.47 728.187C1751.81 727.019 1747.75 725.852 1741.93 725.852C1729.14 725.852 1719.26 732.233 1719.26 745.605C1719.26 763.646 1747.17 762.479 1747.17 774.683C1747.17 781.674 1740.18 783.425 1734.97 783.425C1731.46 783.425 1724.47 782.258 1719.84 779.352L1719.26 789.806ZM1811.71 791.557H1823.91V761.895C1823.91 746.189 1829.74 735.152 1843.69 735.152C1854.16 735.735 1857.06 743.309 1857.06 758.432V791.57H1869.27V753.192C1869.27 735.735 1861.72 725.865 1844.85 725.865C1836.13 725.865 1828.56 729.341 1823.9 736.332V696.787H1811.69L1811.71 791.557ZM2007.73 791.557H2019.94V736.89H2036.81V727.007H2019.94V720.016C2019.94 711.3 2021.1 704.893 2030.99 704.893C2033.32 704.893 2035.64 704.893 2036.81 705.477L2037.39 696.177C2035.06 695.594 2032.74 695.01 2029.24 695.01C2011.78 695.01 2007.73 705.477 2007.73 721.183V727.007H1992.61V736.89H2007.73V791.557ZM2088.56 791.557H2100.78V696.761H2088.56V791.557ZM2156.02 759.561C2156.02 778.185 2169.41 793.308 2188.6 793.308C2208.37 793.308 2221.76 778.185 2221.76 759.561C2221.76 739.808 2208.39 725.839 2188.6 725.839C2168.84 725.852 2156.02 739.808 2156.02 759.561ZM2168.26 759.561C2168.26 747.356 2175.81 735.139 2188.6 735.139C2201.38 735.139 2208.96 747.343 2208.96 759.561C2208.96 771.208 2202.55 783.425 2188.6 783.425C2174.64 783.425 2168.26 771.221 2168.26 759.561ZM2369.49 727.007H2357.86L2341.57 780.507L2325.28 727.007H2311.33L2295.04 780.507H2294.46L2279.92 727.007H2266.54L2287.46 791.557H2301.42L2317.71 737.473L2334.58 791.557H2348.54L2369.49 727.007ZM2411.95 791.557H2426.49V777.602H2411.95V791.557ZM141.345 553.108L151.227 575.195C157.051 587.984 159.372 596.142 159.372 601.939C159.372 603.69 159.372 605.441 158.802 606.595H228.008C221.614 600.772 216.375 588.554 208.243 571.136L139.036 418.157H77.3646L85.5097 430.946L22.6971 569.969C15.7194 586.816 9.9089 596.712 2.93116 606.595H38.9871C38.9871 596.712 41.3087 587.971 44.2139 581.006L55.8478 553.095H141.345V553.108ZM66.898 528.66L98.8944 457.702L130.878 528.66H66.898ZM252.431 418.17C255.336 426.886 255.919 435.044 255.919 443.76V581.032C255.919 589.748 255.336 597.322 252.431 606.621H407.134L411.79 578.127C402.491 581.628 390.844 582.199 382.712 582.199H311.171V443.76C311.171 435.044 311.741 426.886 314.659 418.17H252.431ZM446.679 418.17C449.584 426.886 450.168 435.044 450.168 443.76V581.032C450.168 589.748 449.584 597.322 446.679 606.621H601.382L606.038 578.127C596.739 581.628 585.105 582.199 576.96 582.199H505.419V443.76C505.419 435.044 506.002 426.886 508.908 418.17H446.679ZM792.738 606.608L797.394 578.114C788.665 581.615 776.461 582.186 768.316 582.186H711.314C703.752 582.186 700.847 579.852 700.847 571.136V453.643C700.847 444.901 703.752 442.567 711.314 442.567H768.316C776.461 442.567 788.665 443.15 797.394 446.639L792.738 418.145H683.403C658.968 418.145 645.596 430.349 645.596 456.522V568.205C645.596 594.378 658.968 606.582 683.403 606.582H792.738V606.608ZM956.17 553.108L966.637 575.195C971.876 587.984 974.198 596.142 974.198 601.939C974.198 603.69 974.198 605.441 973.614 606.595H1042.82C1036.43 600.772 1031.2 588.554 1023.06 571.136L953.848 418.157H892.203L900.348 430.946L837.536 569.969C830.558 586.816 824.734 596.712 817.77 606.595H853.826C853.826 596.712 856.16 587.971 859.065 581.006L870.699 553.095H956.17V553.108ZM882.307 528.66L913.707 457.702L945.69 528.66H882.307ZM1242.92 521.112C1242.92 494.939 1230.1 482.734 1205.68 482.734H1135.31C1127.16 482.734 1124.84 480.399 1124.84 471.658V453.643C1124.84 444.901 1127.16 442.567 1135.31 442.567H1212.66C1221.38 442.567 1233.01 443.15 1241.75 446.639L1237.1 418.145H1109.14C1084.7 418.145 1071.33 430.349 1071.33 456.522V497.26C1071.33 523.433 1084.7 535.054 1109.14 535.054H1178.93C1187.07 535.054 1189.99 537.972 1189.99 546.675V571.123C1189.99 579.839 1187.07 582.173 1178.93 582.173H1101.57C1093.43 582.173 1081.8 581.59 1072.5 578.101L1077.74 606.595H1205.68C1230.1 606.595 1242.92 594.391 1242.92 568.218V521.112ZM1421.46 523.446V581.019C1421.46 589.735 1420.88 597.309 1417.96 606.608H1480.2C1477.28 597.309 1476.7 589.735 1476.7 581.019V443.76C1476.7 435.044 1477.28 426.886 1480.2 418.17H1417.96C1420.88 426.886 1421.46 435.044 1421.46 443.76V499.595H1347.01V443.76C1347.01 435.044 1347.6 426.886 1350.52 418.17H1288.27C1291.19 426.886 1291.78 435.044 1291.78 443.76V581.032C1291.78 589.748 1291.19 597.322 1288.27 606.621H1350.52C1347.6 597.322 1347.01 589.748 1347.01 581.032V523.459L1421.46 523.446Z" fill="black"/>
<path fill-rule="evenodd" clip-rule="evenodd" d="M1534.28 70.374H2039.73V606.025H1534.28V70.374ZM1030.03 0H1093.43V63.9669H1030.03V0ZM2261.3 255.323H2324.7V319.29H2261.3V255.323ZM2261.3 349.535H2324.7V414.086H2261.3V349.535ZM1346.42 129.698H1409.83V194.248H1346.42V129.698ZM1467.41 190.759H1531.39V254.739H1467.41V190.759ZM836.939 161.681H900.919V223.326H836.939V161.681Z" fill="#1879BF"/>
<path fill-rule="evenodd" clip-rule="evenodd" d="M1533.14 190.76H1596.53V254.74H1533.14V190.76Z" fill="white"/>
<path fill-rule="evenodd" clip-rule="evenodd" d="M1030.62 191.343H1092.85V253.001H1030.62V191.343ZM459.48 163.419H522.876V227.982H459.48V163.419ZM715.97 300.691H779.95V362.336H715.97V300.691Z" fill="#1879BF"/>
<path fill-rule="evenodd" clip-rule="evenodd" d="M1787.88 305.334H1850.67V368.147H1787.88V305.334ZM1660.51 254.739H1723.89V318.706H1660.51V254.739ZM1877.45 255.323H1940.83V319.29H1877.45V255.323ZM1876.28 349.535H1940.83V414.086H1876.28V349.535ZM1787.88 413.502H1848.96V477.495H1787.88V413.502ZM1877.45 159.359H1940.83V223.326H1877.45V159.359ZM1978.65 255.323H2042.61V319.29H1978.65V255.323Z" fill="white"/>
<path fill-rule="evenodd" clip-rule="evenodd" d="M2354.36 349.535H2418.33V414.086H2354.36V349.535Z" fill="#1879BF"/>
<path fill-rule="evenodd" clip-rule="evenodd" d="M1978.65 349.535H2042.61V414.086H1978.65V349.535Z" fill="white"/>
<path fill-rule="evenodd" clip-rule="evenodd" d="M2071.69 349.536H2135.1V414.086H2071.69V349.536ZM2072.27 255.323H2136.26V319.29H2072.27V255.323ZM2355.53 255.323H2418.91V319.29H2355.53V255.323ZM2167.09 255.323H2230.48V319.29H2167.09V255.323ZM1282.46 255.323H1345.85V319.29H1282.46V255.323Z" fill="#1879BF"/>
<path fill-rule="evenodd" clip-rule="evenodd" d="M1597.11 475.16H1660.51V539.737H1597.11V475.16Z" fill="white"/>
<path fill-rule="evenodd" clip-rule="evenodd" d="M2165.92 349.535H2229.89V414.086H2165.92V349.535Z" fill="#1879BF"/>
<path fill-rule="evenodd" clip-rule="evenodd" d="M1876.28 444.332H1940.83V508.325H1876.28V444.332Z" fill="white"/>
</svg>
