<svg width="27" height="29" viewBox="0 0 27 29" fill="none" xmlns="http://www.w3.org/2000/svg">
<g filter="url(#filter0_d_191_6)">
<path d="M13.9061 7.71131C14.356 7.26177 14.966 7.00934 15.602 7.00957C16.2379 7.00979 16.8478 7.26265 17.2973 7.71251C17.7468 8.16237 17.9993 8.77238 17.999 9.40836C17.9988 10.0443 17.746 10.6542 17.2961 11.1037C17.0734 11.3263 16.8089 11.5028 16.518 11.6232C16.227 11.7436 15.9152 11.8056 15.6003 11.8054C14.9643 11.8052 14.3544 11.5524 13.9049 11.1025C13.4554 10.6526 13.2029 10.0426 13.2032 9.40666C13.2034 8.77069 13.4562 8.16085 13.9061 7.71131ZM16.4489 8.56091C16.3377 8.44957 16.2057 8.36123 16.0604 8.30091C15.9151 8.2406 15.7593 8.2095 15.602 8.20939C15.4446 8.20927 15.2888 8.24015 15.1434 8.30026C14.998 8.36037 14.8658 8.44853 14.7545 8.55971C14.5297 8.78424 14.4032 9.0889 14.403 9.40666C14.4028 9.72442 14.5288 10.0293 14.7533 10.2541C14.9778 10.479 15.2825 10.6054 15.6003 10.6056C15.918 10.6059 16.2229 10.4798 16.4477 10.2553C16.6726 10.0308 16.799 9.72612 16.7992 9.40836C16.7994 9.09059 16.6734 8.78576 16.4489 8.56091ZM15.0989 17.4049C14.7634 17.5639 14.3868 17.6152 14.021 17.5518C13.6551 17.4885 13.3178 17.3135 13.0553 17.0509L12.3233 16.3201L11.4449 17.7841C11.3981 17.8623 11.334 17.9288 11.2576 17.9785C11.1812 18.0282 11.0945 18.0599 11.0041 18.0711C10.9136 18.0824 10.8218 18.0728 10.7356 18.0433C10.6494 18.0137 10.571 17.9649 10.5065 17.9005L7.1105 14.5033C7.04608 14.4389 6.99718 14.3606 6.96752 14.2744C6.93786 14.1883 6.92822 14.0965 6.93932 14.006C6.95043 13.9156 6.98199 13.8288 7.03161 13.7524C7.08123 13.676 7.1476 13.6119 7.2257 13.5649L8.6897 12.6865L7.9577 11.9545C7.69512 11.692 7.52016 11.3547 7.45678 10.9888C7.39341 10.623 7.44472 10.2465 7.6037 9.91091L6.2597 8.56691C6.14722 8.45439 6.08403 8.30181 6.08403 8.14271C6.08403 7.98361 6.14722 7.83102 6.2597 7.71851L7.5317 6.44651C8.05756 5.91977 8.73375 5.56897 9.4672 5.44239C10.2007 5.31581 10.9553 5.41969 11.6273 5.73971L12.7529 4.61531C13.7275 3.63968 14.9508 2.94971 16.29 2.62033C17.6291 2.29094 19.0329 2.33472 20.3489 2.74691C21.2609 3.03251 21.9773 3.74771 22.2629 4.66091C22.6751 5.97691 22.7189 7.3807 22.3895 8.71983C22.0601 10.059 21.3701 11.2823 20.3945 12.2569L19.2701 13.3825C19.59 14.0546 19.6937 14.8093 19.5669 15.5428C19.4401 16.2763 19.089 16.9524 18.5621 17.4781L17.2913 18.7501C17.1788 18.8626 17.0262 18.9258 16.8671 18.9258C16.708 18.9258 16.5554 18.8626 16.4429 18.7501L15.0989 17.4049ZM19.9901 3.89291C18.8833 3.54609 17.7026 3.50914 16.5763 3.78607C15.45 4.06299 14.4211 4.64321 13.6013 5.46371L12.6221 6.44171L12.6269 6.44651L11.7785 7.29491L11.7737 7.29011L9.2273 9.83651L9.2321 9.84131L8.7485 10.3249C8.66292 10.4404 8.62166 10.5828 8.63223 10.7262C8.6428 10.8696 8.7045 11.0044 8.8061 11.1061L13.9037 16.2025C14.0056 16.3042 14.1408 16.3659 14.2844 16.3763C14.4281 16.3866 14.5706 16.345 14.6861 16.2589L15.1685 15.7777L15.1721 15.7825L17.7185 13.2361L17.7149 13.2313L18.5633 12.3829L18.5669 12.3877L19.5461 11.4085C20.367 10.5887 20.9476 9.55966 21.2247 8.4331C21.5019 7.30655 21.465 6.12558 21.1181 5.01851C21.0351 4.75365 20.8891 4.51288 20.6927 4.31683C20.4962 4.12078 20.2551 3.97532 19.9901 3.89291ZM16.0217 16.6309L16.8665 17.4769L17.7149 16.6285C18.0129 16.3311 18.2275 15.9606 18.337 15.5541C18.4465 15.1475 18.4472 14.7194 18.3389 14.3125L16.0217 16.6309ZM10.6961 6.67091C10.2892 6.56264 9.86107 6.56331 9.45456 6.67283C9.04804 6.78236 8.67749 6.9969 8.3801 7.29491L7.5329 8.14331L8.3789 8.98811L10.6961 6.67091ZM11.4485 15.4453L9.5645 13.5613L8.5013 14.1973L10.8113 16.5085L11.4485 15.4453ZM7.9637 17.8933C8.02318 17.8385 8.07095 17.7722 8.10416 17.6985C8.13737 17.6247 8.15532 17.545 8.15694 17.4641C8.15856 17.3833 8.14381 17.3029 8.11358 17.2279C8.08335 17.1529 8.03826 17.0847 7.98102 17.0276C7.92379 16.9704 7.85559 16.9254 7.78052 16.8953C7.70546 16.8652 7.62508 16.8505 7.54421 16.8523C7.46334 16.854 7.38366 16.8721 7.30995 16.9054C7.23625 16.9387 7.17004 16.9866 7.1153 17.0461L4.9937 19.1677C4.9364 19.2231 4.89069 19.2893 4.85924 19.3625C4.8278 19.4357 4.81124 19.5144 4.81055 19.5941C4.80986 19.6737 4.82504 19.7527 4.85521 19.8265C4.88538 19.9002 4.92993 19.9672 4.98627 20.0235C5.0426 20.0799 5.10959 20.1244 5.18333 20.1546C5.25707 20.1848 5.33608 20.1999 5.41574 20.1993C5.49541 20.1986 5.57414 20.182 5.64734 20.1506C5.72055 20.1191 5.78675 20.0734 5.8421 20.0161L7.9637 17.8933ZM6.2657 15.3481C6.37818 15.4606 6.44137 15.6132 6.44137 15.7723C6.44137 15.9314 6.37818 16.084 6.2657 16.1965L5.4137 17.0473C5.30039 17.1565 5.14874 17.2167 4.99142 17.2151C4.83409 17.2136 4.68369 17.1502 4.5726 17.0388C4.46151 16.9274 4.39862 16.7768 4.39748 16.6195C4.39634 16.4622 4.45704 16.3107 4.5665 16.1977L5.4173 15.3481C5.52982 15.2356 5.6824 15.1724 5.8415 15.1724C6.0006 15.1724 6.15319 15.2356 6.2657 15.3481ZM9.6617 19.5925C9.771 19.4793 9.83147 19.3278 9.83011 19.1705C9.82874 19.0131 9.76564 18.8627 9.65439 18.7514C9.54315 18.6402 9.39266 18.5771 9.23534 18.5757C9.07802 18.5743 8.92646 18.6348 8.8133 18.7441L7.9625 19.5949C7.9052 19.6503 7.85949 19.7165 7.82804 19.7897C7.7966 19.8629 7.78004 19.9416 7.77935 20.0213C7.77866 20.1009 7.79384 20.1799 7.82401 20.2537C7.85418 20.3274 7.89873 20.3944 7.95507 20.4507C8.0114 20.5071 8.07839 20.5516 8.15213 20.5818C8.22587 20.612 8.30488 20.6272 8.38454 20.6265C8.46421 20.6258 8.54294 20.6092 8.61614 20.5778C8.68935 20.5463 8.75555 20.5006 8.8109 20.4433L9.6617 19.5925Z" fill="white"/>
</g>
<defs>
<filter id="filter0_d_191_6" x="-3" y="0" width="32" height="32" filterUnits="userSpaceOnUse" color-interpolation-filters="sRGB">
<feFlood flood-opacity="0" result="BackgroundImageFix"/>
<feColorMatrix in="SourceAlpha" type="matrix" values="0 0 0 0 0 0 0 0 0 0 0 0 0 0 0 0 0 0 127 0" result="hardAlpha"/>
<feOffset dy="4"/>
<feGaussianBlur stdDeviation="2"/>
<feComposite in2="hardAlpha" operator="out"/>
<feColorMatrix type="matrix" values="0 0 0 0 0 0 0 0 0 0 0 0 0 0 0 0 0 0 0.25 0"/>
<feBlend mode="normal" in2="BackgroundImageFix" result="effect1_dropShadow_191_6"/>
<feBlend mode="normal" in="SourceGraphic" in2="effect1_dropShadow_191_6" result="shape"/>
</filter>
</defs>
</svg>
